<?xml version="1.0" encoding="UTF-8"?>
<svg version="1.1" xmlns="http://www.w3.org/2000/svg" width="512" height="512">
<path d="M0 0 C5.3306719 3.13176974 8.5127755 8.0227727 11 13.5625 C12.37636194 20.03140114 11.90525824 25.69430956 8.625 31.5 C1.01005064 41.13066035 -8.30854386 49.59622088 -16.96704102 58.26904297 C-18.64027754 59.94855474 -20.31332749 61.62825241 -21.98620605 63.30812073 C-27.44688401 68.78969363 -32.9127668 74.26606163 -38.37890625 79.7421875 C-39.79234966 81.15866512 -41.20579297 82.57514286 -42.61918731 83.99166944 C-50.93941534 92.33033249 -59.26098382 100.66765513 -67.58657932 109.0009594 C-69.61559049 111.03187999 -71.64459615 113.06280609 -73.67358398 115.09375 C-74.17779111 115.59844087 -74.68199824 116.10313174 -75.20148437 116.62311627 C-83.38577493 124.81572385 -91.56149811 133.01682618 -99.73372198 141.22146867 C-108.1428827 149.66371377 -116.559568 158.0983973 -124.98368973 166.52571404 C-129.70605756 171.25024357 -134.42488618 175.97822004 -139.13574409 180.71422958 C-143.56181436 185.16355402 -147.99728066 189.60329048 -152.44013214 194.03585625 C-154.0673603 195.66258851 -155.69117719 197.29274144 -157.31128502 198.92656517 C-159.52560473 201.15857778 -161.75195972 203.37786403 -163.98170471 205.5944519 C-164.61761506 206.2413315 -165.25352541 206.8882111 -165.90870577 207.5546931 C-170.73225886 212.30994958 -175.71731544 215.87819363 -182.5 217.03125 C-183.44875 217.0209375 -184.3975 217.010625 -185.375 217 C-186.798125 217.01546875 -186.798125 217.01546875 -188.25 217.03125 C-196.753523 215.58565109 -202.09651807 210.35535505 -207.93066406 204.44604492 C-208.74470703 203.63740494 -209.55875 202.82876495 -210.39746094 201.99562073 C-213.07183516 199.33370115 -215.73149164 196.65760671 -218.390625 193.98046875 C-220.25225205 192.11899676 -222.11454667 190.25819217 -223.97747803 188.39802551 C-227.87451022 184.50368833 -231.76341348 180.60137689 -235.64746094 176.6940918 C-240.1268146 172.18812355 -244.61847811 167.69472345 -249.1170218 163.2079193 C-253.45960054 158.87614933 -257.79354875 154.53585647 -262.12371063 150.19167519 C-263.96042193 148.35045523 -265.79921746 146.51131192 -267.64014435 144.67430687 C-270.21317131 142.10419732 -272.77626056 139.52456872 -275.33691406 136.94213867 C-276.09542664 136.18812775 -276.85393921 135.43411682 -277.63543701 134.65725708 C-283.6226363 128.58542987 -287.8215962 123.03403804 -288.6875 114.375 C-288.13999827 107.5859786 -286.10949321 101.61865769 -280.9375 97 C-276.50389016 93.46134156 -272.20323581 92.19892839 -266.5625 92.125 C-265.58667969 92.09664063 -264.61085938 92.06828125 -263.60546875 92.0390625 C-255.93200065 93.1339467 -250.66831053 97.62402251 -245.40820312 103.01269531 C-244.76329926 103.65701508 -244.11839539 104.30133484 -243.45394897 104.96517944 C-241.34508262 107.07681107 -239.25070597 109.20220782 -237.15625 111.328125 C-235.68882501 112.80301787 -234.22050876 114.27702447 -232.75134277 115.75018311 C-228.90215847 119.61458042 -225.06514279 123.49084121 -221.23059082 127.36975098 C-217.30948439 131.33190335 -213.37691468 135.28264213 -209.4453125 139.234375 C-201.74398673 146.9784952 -194.05547616 154.73520494 -186.375 162.5 C-182.03385599 160.83851753 -179.14315087 157.52745289 -175.94952393 154.28811646 C-175.30654948 153.6440286 -174.66357503 152.99994074 -174.00111651 152.33633506 C-171.84395427 150.17309224 -169.69402983 148.00279546 -167.54394531 145.83251953 C-166.0001641 144.28162701 -164.45591221 142.73120289 -162.91122437 141.18121338 C-159.58327501 137.84015314 -156.25835942 134.49611254 -152.93564606 131.14984512 C-147.6802662 125.8579104 -142.41622601 120.57464907 -137.15057373 115.29293823 C-129.7671931 107.88572813 -122.38588477 100.47646262 -115.0078125 93.06396484 C-114.30557753 92.35845951 -114.30557753 92.35845951 -113.589156 91.63870154 C-106.94991531 84.96825984 -100.31367861 78.29483753 -93.67865333 71.62020312 C-92.97823751 70.91560736 -92.97823751 70.91560736 -92.26367188 70.19677734 C-91.79730069 69.7276191 -91.33092951 69.25846086 -90.85042587 68.7750857 C-83.06498403 60.94352189 -75.27167232 53.11984419 -67.47223353 45.30222023 C-62.2376862 40.05459525 -57.01227945 34.79808651 -51.79346514 29.53481698 C-48.54138981 26.2592531 -45.28095526 22.99211061 -42.018116 19.72727203 C-40.50857778 18.21344476 -39.00247686 16.69618078 -37.50012589 15.17522049 C-35.44539814 13.09603626 -33.3785914 11.02963315 -31.30841064 8.96585083 C-30.71967202 8.3640966 -30.1309334 7.76234238 -29.52435422 7.14235318 C-21.38577584 -0.89907123 -11.1240311 -4.77353059 0 0 Z " fill="#39b55b" transform="translate(394.375,148.5)"/>
</svg>
