<?xml version="1.0" encoding="UTF-8"?>
<svg version="1.1" xmlns="http://www.w3.org/2000/svg" width="500" height="500">
<path d="M0 0 C1.06412109 -0.01998047 2.12824219 -0.03996094 3.22460938 -0.06054688 C15.20266632 -0.05323873 24.20841145 4.37787186 34.375 10.3125 C35.35686279 10.87622314 36.33872559 11.43994629 37.3503418 12.02075195 C40.46907 13.81563406 43.57943603 15.62422085 46.6875 17.4375 C47.71262695 18.0351416 48.73775391 18.6327832 49.79394531 19.24853516 C53.87842081 21.63168392 57.9616776 24.01688854 62.04223633 26.40673828 C71.53005671 31.95494436 81.1213967 37.30342523 90.76611328 42.57324219 C100.54635345 47.91876402 110.17752369 53.47772915 119.75 59.1875 C135.08577078 68.33294409 150.64777098 77.05169348 166.3190918 85.60913086 C177.5031648 91.72066458 188.50323756 98.12440136 199.49755859 104.56982422 C218.22383982 115.60955161 218.22383982 115.60955161 237.3125 126 C247.22848834 131.14202984 256.80046493 136.86975213 266.42724609 142.52880859 C273.13322524 146.45477422 279.87273622 150.32285146 286.60717773 154.19970703 C288.12420288 155.07344971 288.12420288 155.07344971 289.671875 155.96484375 C291.15554565 156.81900879 291.15554565 156.81900879 292.66918945 157.69042969 C296.76767055 160.06272854 300.84791584 162.4658237 304.92553711 164.8737793 C307.73737166 166.46573548 310.59170566 167.90566108 313.5 169.3125 C318.54140417 171.79113646 323.34495812 174.56185578 328.13378906 177.48779297 C333.47407589 180.73949919 338.88302941 183.86126526 344.30908203 186.9675293 C385.27332024 210.42009338 385.27332024 210.42009338 392.26953125 232.25390625 C394.17830399 242.22590591 393.20190257 252.36637233 388.6875 261.4375 C388.275 262.27667969 387.8625 263.11585938 387.4375 263.98046875 C378.4498133 280.4493833 362.11870489 288.4011779 346.421875 297.26171875 C341.25402587 300.23169893 336.24567511 303.45649997 331.21875 306.65698242 C325.13477795 310.53030738 319.0148803 314.34098495 312.875 318.125 C305.88066501 322.43567716 298.94279549 326.8135976 292.0859375 331.33984375 C289.2472853 333.09197735 286.39829148 334.70179508 283.46484375 336.28515625 C277.82521146 339.33191456 272.34037755 342.59004011 266.875 345.9375 C265.89160645 346.53771973 264.90821289 347.13793945 263.89501953 347.75634766 C255.06200923 353.16767535 246.32573164 358.72634341 237.59765625 364.3046875 C222.19936832 374.1424008 222.19936832 374.1424008 214.5625 378.1875 C208.76949037 381.29594419 203.26599618 384.81054639 197.72558594 388.34179688 C190.62999602 392.85942334 183.48006869 397.28532255 176.3125 401.6875 C175.25603271 402.33638184 174.19956543 402.98526367 173.11108398 403.65380859 C171.02767694 404.93283456 168.94393857 406.211321 166.85986328 407.48925781 C164.66899502 408.83473486 162.47998078 410.18323386 160.29248047 411.53417969 C154.42235119 415.15867768 148.53384659 418.73278065 142.5625 422.1875 C134.80932616 426.71254384 127.22444509 431.47898336 119.6484375 436.29296875 C108.3740445 443.45348898 97.0412374 450.52656478 85.5 457.25 C70.1887225 466.17229223 55.15646179 475.57964005 40.1875 485.0625 C38.66669923 486.02348904 37.14586778 486.98442951 35.625 487.9453125 C33.30639083 489.41033162 30.99423937 490.88342546 28.6875 492.3671875 C18.91926864 498.50285782 9.80211972 501.18101049 -1.75 501.0625 C-2.84876465 501.05557129 -3.9475293 501.04864258 -5.07958984 501.04150391 C-13.52175334 500.81428731 -19.46087731 499.63321388 -26.3125 494.4375 C-26.97636719 493.99277344 -27.64023437 493.54804688 -28.32421875 493.08984375 C-37.35734477 486.36888448 -42.70840692 474.52989383 -44.84952134 463.72831297 C-45.35031651 460.16870349 -45.4416423 456.77390387 -45.44672108 453.17902374 C-45.44907331 452.46717808 -45.45142554 451.75533242 -45.45384905 451.02191567 C-45.46050652 448.63638047 -45.46008181 446.25090014 -45.45967102 443.86535645 C-45.46297167 442.13773882 -45.46669766 440.41012196 -45.4708125 438.68250608 C-45.4808177 433.93442861 -45.48454691 429.18636377 -45.48720181 424.43827724 C-45.49110924 419.31740725 -45.50068725 414.19654722 -45.50941467 409.07568359 C-45.52916632 396.70871178 -45.53924348 384.34173917 -45.54814246 371.97475553 C-45.55252734 366.14881414 -45.55789362 360.32287366 -45.56313133 354.49693298 C-45.58014203 335.12678465 -45.59463594 315.75663689 -45.60188007 296.38648224 C-45.60378992 291.36117044 -45.60571026 286.33585865 -45.60766602 281.31054688 C-45.60839163 279.4370576 -45.60839163 279.4370576 -45.6091319 277.52572006 C-45.61743126 257.29530329 -45.64276733 237.06494567 -45.67524669 216.83455473 C-45.70833079 196.05788799 -45.72633004 175.2812513 -45.72952431 154.50455809 C-45.73168811 142.84187368 -45.74041787 131.17927553 -45.76598549 119.51661682 C-45.78771086 109.58375842 -45.79573381 99.65100725 -45.78601871 89.71812779 C-45.78147942 84.65310138 -45.78333876 79.58829613 -45.80278015 74.52330017 C-45.82045093 69.87935321 -45.8193824 65.2357881 -45.80388286 60.59183687 C-45.80151273 58.91882602 -45.80579919 57.24578846 -45.81771151 55.57281834 C-45.91430768 41.10132722 -43.89687942 28.58180579 -35.3125 16.4375 C-34.57 15.385625 -33.8275 14.33375 -33.0625 13.25 C-23.33034402 3.29665865 -13.63332297 -0.08985414 0 0 Z M0.6875 44.4375 C-0.62666739 45.52682673 -0.62666739 45.52682673 -0.4366985 48.1906305 C-0.43631878 49.43573346 -0.43593906 50.68083642 -0.43554783 51.96366978 C-0.43670167 52.65705683 -0.43785552 53.35044389 -0.43904433 54.06484267 C-0.44171767 56.41756517 -0.43718298 58.77022095 -0.43275452 61.12294006 C-0.43319007 62.81497143 -0.43406469 64.50700274 -0.43534368 66.19903368 C-0.43759172 70.87142812 -0.43356317 75.54379986 -0.42856562 80.21619141 C-0.42426571 85.24621401 -0.42570722 90.27623523 -0.4264679 95.30625916 C-0.42699342 104.02869536 -0.42384362 112.7511241 -0.41823006 121.47355843 C-0.41011894 134.0848897 -0.40750024 146.69621736 -0.40624207 159.30755096 C-0.40405093 179.76631532 -0.39738919 200.22507569 -0.38793945 220.68383789 C-0.37876692 240.56306946 -0.37168531 260.44229995 -0.36743164 280.3215332 C-0.36716892 281.54593867 -0.36690619 282.77034413 -0.36663551 284.03185279 C-0.36533052 290.17405136 -0.3640668 296.31624994 -0.36282361 302.45844853 C-0.35244908 353.45146844 -0.33482911 404.44448402 -0.3125 455.4375 C2.76790365 454.7215449 5.0709572 453.77893642 7.78515625 452.13671875 C8.97250366 451.42225586 8.97250366 451.42225586 10.18383789 450.69335938 C11.03067139 450.17580078 11.87750488 449.65824219 12.75 449.125 C13.6361499 448.58810547 14.5222998 448.05121094 15.43530273 447.49804688 C25.4379407 441.41465418 35.3212875 435.1430118 45.18701172 428.84082031 C46.86980638 427.76619811 48.5534801 426.69295121 50.23803711 425.62109375 C51.8046647 424.62424829 53.36946572 423.62452267 54.93188477 422.62109375 C58.87629088 420.11297311 62.8633124 417.76914292 66.98046875 415.5546875 C73.12994676 412.24112863 79.06368977 408.6163655 85 404.9375 C86.14585562 404.23037298 87.29177149 403.52334358 88.43774414 402.81640625 C95.54414908 398.42475951 102.59632892 393.95249017 109.625 389.4375 C118.29579168 383.8721764 127.11248159 378.57618328 135.99035645 373.35061646 C148.99559902 365.69507249 161.82092466 357.77358871 174.58203125 349.71875 C185.08792637 343.09893179 195.64703213 336.66746595 206.46362305 330.56738281 C212.37258954 327.22372845 218.09121098 323.70495839 223.76953125 319.98046875 C229.02030018 316.54569124 234.36140499 313.25365542 239.6875 309.9375 C247.30931946 305.19090731 254.90020522 300.4104921 262.39453125 295.46484375 C265.19358866 293.74158064 268.00767298 292.15817328 270.8984375 290.59765625 C276.54160045 287.54772353 282.03068456 284.28737179 287.5 280.9375 C288.48339355 280.33728027 289.46678711 279.73706055 290.47998047 279.11865234 C299.3089854 273.70977845 308.04129913 268.15361268 316.765625 262.578125 C333.22465506 252.06298338 333.22465506 252.06298338 339.25 249.1875 C342.42502993 247.57112113 344.38841405 246.11976694 346.6875 243.4375 C345.20580326 239.5415775 343.23366398 238.26471586 339.6484375 236.2578125 C338.60502197 235.66572998 337.56160645 235.07364746 336.48657227 234.46362305 C335.35662842 233.83625244 334.22668457 233.20888184 333.0625 232.5625 C331.88598081 231.89935685 330.71012633 231.23503314 329.53491211 230.56958008 C327.72123408 229.54280153 325.9071387 228.51685481 324.09074402 227.49488831 C319.10541323 224.68823721 314.17102797 221.79992439 309.24414062 218.8918457 C301.27757279 214.19076519 293.28380374 209.61638238 285.0625 205.375 C277.37647538 201.40956261 269.9365361 197.10988329 262.51123047 192.67773438 C254.94673049 188.16654166 247.33383832 183.74548301 239.6875 179.375 C239.09084534 179.03378113 238.49419067 178.69256226 237.87945557 178.34100342 C230.1795812 173.94252603 222.4326933 169.64219685 214.625 165.4375 C205.82929293 160.69773089 197.22988527 155.65952605 188.65463257 150.53427124 C177.44568999 143.83825483 166.08652958 137.43748237 154.67236328 131.09912109 C141.31166448 123.66145415 128.03078583 116.0792188 114.75 108.5 C114.16112 108.16396759 113.57223999 107.82793518 112.96551514 107.48171997 C104.61025397 102.71090623 96.29602733 97.87317694 88 93 C81.46646555 89.16494946 74.91390999 85.42378884 68.1875 81.9375 C58.23628184 76.77944387 48.62989019 71.03796455 38.96972656 65.359375 C33.20385306 61.98322532 27.41425452 58.64834774 21.625 55.3125 C20.53711182 54.68520996 19.44922363 54.05791992 18.32836914 53.41162109 C16.32252388 52.2555823 14.31583354 51.10100794 12.30810547 49.94824219 C10.68789166 49.01421172 9.07149078 48.07348841 7.46142578 47.12207031 C4.2900377 45.0980121 4.2900377 45.0980121 0.6875 44.4375 Z " fill="#ffd60a" transform="translate(76.3125,-0.4375)"/>
<path d="M0 0 C0 0.66 0 1.32 0 2 C-0.59941406 2.25910156 -1.19882812 2.51820312 -1.81640625 2.78515625 C-4.16794302 4.0934352 -5.29915342 5.32716438 -6.9375 7.4375 C-9.33790795 10.36929597 -11.56713649 12.28356825 -15 14 C-12.56232155 8.51522349 -6.75709363 0 0 0 Z " fill="#ffd60a" transform="translate(55,5)"/>
<path d="M0 0 C-0.625 2.4375 -0.625 2.4375 -2 5 C-7.05263158 6.47368421 -7.05263158 6.47368421 -10 5 C-8.71186658 4.16121545 -7.41936744 3.32913217 -6.125 2.5 C-5.40570313 2.0359375 -4.68640625 1.571875 -3.9453125 1.09375 C-2 0 -2 0 0 0 Z " fill="#ffd60a" transform="translate(234,360)"/>
<path d="M0 0 C0.66 0.33 1.32 0.66 2 1 C-0.5162178 3.60608273 -3.05134359 5.89381685 -6 8 C-6 7.34 -6 6.68 -6 6 C-6.66 5.67 -7.32 5.34 -8 5 C-6.71475739 4.13619741 -5.42157581 3.28419631 -4.125 2.4375 C-3.04605469 1.72400391 -3.04605469 1.72400391 -1.9453125 0.99609375 C-1.30335938 0.66738281 -0.66140625 0.33867187 0 0 Z " fill="#ffd60a" transform="translate(157,406)"/>
<path d="M0 0 C-0.75 1.9375 -0.75 1.9375 -2 4 C-4 4.8125 -4 4.8125 -6 5 C-6.66 4.67 -7.32 4.34 -8 4 C-2.25 0 -2.25 0 0 0 Z " fill="#ffd60a" transform="translate(381,270)"/>
<path d="M0 0 C-0.66 1.65 -1.32 3.3 -2 5 C-3.98 5 -5.96 5 -8 5 C-3.22727273 0 -3.22727273 0 0 0 Z " fill="#ffd60a" transform="translate(288,327)"/>
</svg>
